# xmcd CD database file
#
# Track frame offsets:
#	150
#	20310
#	39815
#	59055
#	72082
#	86253
#	99560
#	116588
#	130840
#	144788
#	160558
#	173593
#	186870
#	199448
#	213658
#	227090
#	240843
#	252623
#	264953
#	278400
#	294773
#	314475
#
# Disc length: 4406 seconds
#
# Revision: 0
# Processed by: cddbd v1.5.2PL0 Copyright (c) Steve Scherf et al.
# Submitted via: CDex 1.70beta2
#
DISCID=28113416
DTITLE=ChartBreakers - ChartBreakers CGC-514
DYEAR=1900
DGENRE=Country
TTITLE0=Alabama - The Closer You Get
TTITLE1=Garth Brooks - Shameless
TTITLE2=Brooks and Dunn - Neon Moon
TTITLE3=ALan Jackson - Love's Got A Hold On You
TTITLE4=Lorrie Morgan - We Both Walk
TTITLE5=Sawyer Brown - Race Is On
TTITLE6=Sawyer Brown - The Walk
TTITLE7=Ricky Van Shelton - Backroads
TTITLE8=Shenandoah - Church On Cumberland Road
TTITLE9=Doug Stone - I Thought It Was You
TTITLE10=George Strait - Amarillo By Morning
TTITLE11=Marty Stuart - Western Girls
TTITLE12=Sweethearts Of The Rodeo - Since I Found You
TTITLE13=Pam Tillis - Shake The Sugar Tree
TTITLE14=Aaron Tippin - I Wouldn't Have It Any Other Way
TTITLE15=RandyTravis - 1982
TTITLE16=Travis Tritt - Here's A Quarter (Call Someone Who Cares)
TTITLE17=Travis Tritt and Marty Stuart - Whiskey Ain't Workin'
TTITLE18=Tanya Tucker - (Without You) What Do I Do With Me
TTITLE19=Keith Whitley - I'm No Stranger To The Rain
TTITLE20=Wynonna - My Strongest Weakness
TTITLE21=Randy Travis - Point Of Light
EXTD=YEAR: 1900
EXTT0=
EXTT1=
EXTT2=
EXTT3=
EXTT4=
EXTT5=
EXTT6=
EXTT7=
EXTT8=
EXTT9=
EXTT10=
EXTT11=
EXTT12=
EXTT13=
EXTT14=
EXTT15=
EXTT16=
EXTT17=
EXTT18=
EXTT19=
EXTT20=
EXTT21=
PLAYORDER=
